<?xml version="1.0" encoding="UTF-8"?>
<svg xmlns="http://www.w3.org/2000/svg" viewBox="0 0 424.35 137.1">
  <defs>
    <style>
      .cls-1, .cls-2, .cls-3, .cls-4, .cls-5, .cls-6, .cls-7, .cls-8, .cls-9, .cls-10, .cls-11, .cls-12 {
        fill: none;
      }

      .cls-13 {
        font-family: ArialMT, Arial;
        font-size: 7.44px;
      }

      .cls-13, .cls-14 {
        fill: #231f20;
      }

      .cls-15 {
        stroke: #70ccd7;
      }

      .cls-15, .cls-2, .cls-3, .cls-4, .cls-16, .cls-5, .cls-6, .cls-7, .cls-8, .cls-9, .cls-10, .cls-11, .cls-12, .cls-17 {
        stroke-miterlimit: 10;
      }

      .cls-15, .cls-16, .cls-18, .cls-17 {
        fill: #fff;
      }

      .cls-15, .cls-16, .cls-17 {
        stroke-width: .99px;
      }

      .cls-19 {
        fill: #76a4c7;
      }

      .cls-20 {
        fill: #9f9c9d;
      }

      .cls-2 {
        stroke: #70ccd8;
      }

      .cls-14 {
        opacity: 0;
      }

      .cls-21 {
        fill: #5abad2;
      }

      .cls-22 {
        fill: #93c83e;
      }

      .cls-3 {
        stroke: #76a4c7;
      }

      .cls-3, .cls-4, .cls-12 {
        stroke-width: 1px;
      }

      .cls-4 {
        stroke: #dba11f;
      }

      .cls-23 {
        fill: #67b1d8;
      }

      .cls-16, .cls-11 {
        stroke: #f9a75a;
      }

      .cls-24 {
        fill: #00bff3;
      }

      .cls-5, .cls-6, .cls-7, .cls-10 {
        stroke-width: 1px;
      }

      .cls-5, .cls-7, .cls-10 {
        stroke: #9f9c9d;
      }

      .cls-6 {
        stroke: #231f20;
      }

      .cls-7 {
        stroke-dasharray: 5.26 5.26;
      }

      .cls-8, .cls-17 {
        stroke: #aac36c;
      }

      .cls-9 {
        stroke: #000;
      }

      .cls-10 {
        stroke-dasharray: 4.87 4.87;
      }

      .cls-25 {
        fill: #f9a75a;
      }

      .cls-26 {
        fill: #faa659;
      }

      .cls-27 {
        fill: #70ccd8;
      }

      .cls-12 {
        stroke: #67b1d8;
      }

      .cls-28 {
        fill: #aac46d;
      }

      .cls-29 {
        fill: #9c4319;
      }

      .cls-30 {
        fill: #dba11f;
      }
    </style>
  </defs>
  <g id="Layer_1" data-name="Layer 1">
    <path class="cls-22" d="M171.15,15.95s.22.38,1.05.12c.83-.26,2.01-1.23,1.99-1.91-.01-.68-.27-1.5-1.17-1.83-.89-.34-2.55.4-2.79.57,0,0,0,.09.06.27.02.05-.07.18-.19.12-.12-.06-.55-.18-.86,0s-.3.2-.27.3c.03.1.2.12.1.25-.1.13-.22.24-.22.24,0,0-.11-.07-.32-.02-.21.06-.66.33-.67.41-.02.09.16.08.12.16-.04.08-.12.05-.43.12-.31.07,0,0,0,0,0,0-.71.19-.38.2.34,0,.13.29.03.42-.1.14.64.66.7.88.07.22.09.36.5.33.4-.03.24-.28.36-.3.11-.02.02.38.11.45.21.16.77-.21.93-.47.12-.19.15-.3.19-.2.04.1-.07.47.16.46.23-.01.9-.23,1.01-.59"/>
    <path class="cls-22" d="M173.52,12.74s.85-.42.48-1.54c-.37-1.12-.73-1.89-1.01-2.01-.28-.12.14-.39.6.37.46.75,1.33,2.06.83,3.25-.5,1.19-.39.78-.39.78,0,0-.04-.02.25.09.29.11.93.75.79,1.27-.14.52-.93,1.89-.86,2.09.07.2.02.56.02.56,0,0-.25.3-.2-.23.05-.53.15-.38.32-1.16.17-.78.5-1.69-.27-2.06,0,0-.14-1.2-.57-1.41"/>
    <path class="cls-22" d="M166.49,15.92s-.66.3-.64.39c.02.09.15.62.26.67.11.05-.03.21.73-.05,0,0-.19-.95-.36-1.01"/>
    <path class="cls-22" d="M167.48,15.4s-.11-.21-.49-.07c-.38.15-.45.09-.17.2.28.11.37.37.43.48.07.1.25.54.23.69-.02.14.51-.07.51-.27,0-.2-.51-1.03-.51-1.03"/>
    <path class="cls-22" d="M167.58,16.64s-.59.39-.76.36c-.17-.03-.83-.42-.6-.74.23-.33.08-.45.47-.57.39-.12.44-.07.46-.05.02.02.48.66.43,1.01"/>
    <path class="cls-22" d="M165.99,16.23s-.57.2-.61.31c-.04.11-.04.36.08.45.12.09.14.29.35.26.2-.03.58-.25.58-.25,0,0-.3-.11-.38-.77"/>
    <path class="cls-22" d="M165.44,16.57s-.31.2-.73.37c-.42.17-1.04.4-1.19.5-.15.1.94-.11-.1.22,0,0-2.86,1.36-3.35,1.5,0,0,2.78-.97,3.25-1.22.47-.24,1.53-.73,1.53-.73,0,0,.22.04-.3.33-.53.29-3.56,2.46-3.63,2.6-.07.14,2.8-1.89,2.92-1.9.12-.01-2.02,1.91-1.95,1.93.07.03,2.03-1.8,2.17-1.86.14-.06-.07.16,0,.14.07-.02,1.73-1.23,1.9-1.29.17-.06-.1.14-.24-.04s-.27-.56-.27-.56"/>
    <path class="cls-22" d="M169.01,22.46s-.29-.33-1.05.08c-.76.41-1.74,1.59-1.59,2.26.14.67.55,1.42,1.49,1.58.94.16,2.43-.88,2.63-1.09,0,0-.01-.09-.12-.26-.03-.05.04-.19.17-.16.13.03.58.07.85-.17.27-.24.25-.25.21-.35-.05-.1-.22-.08-.14-.23.07-.14.17-.28.17-.28,0,0,.12.05.32-.04.2-.1.58-.45.59-.54,0-.09-.18-.05-.15-.14.03-.08.11-.08.4-.2.29-.13,0,0,0,0,0,0,.66-.33.33-.26-.33.06-.18-.25-.11-.41.08-.16-.75-.53-.86-.73-.11-.2-.16-.34-.55-.23-.39.11-.19.32-.3.36-.11.04-.09-.37-.19-.42-.23-.12-.71.36-.83.63-.08.21-.09.32-.15.23-.06-.08-.02-.48-.24-.42-.22.05-.84.39-.88.77"/>
    <path class="cls-22" d="M167.82,29.2c-.59-.65-1.7-1.77-1.43-3.04.26-1.26.24-.84.24-.84,0,0,.04.01-.26-.04-.31-.05-1.06-.56-1.02-1.1.04-.54.56-2.03.45-2.21-.11-.18-.13-.55-.13-.55,0,0,.19-.34.24.19.05.53-.07.4-.1,1.2-.02.8-.17,1.76.65,1.98,0,0,.36,1.16.83,1.28"/>
    <path class="cls-22" d="M167.29,26.06s-.76.57-.18,1.6c.57,1.03,1.07,1.71,1.37,1.78"/>
    <path class="cls-22" d="M173.6,21.61s.59-.42.55-.5c-.04-.08-.26-.58-.39-.61-.12-.03-.01-.21-.71.19,0,0,.36.9.55.92"/>
    <path class="cls-22" d="M172.72,22.31s.15.19.5-.03c.34-.22.43-.17.13-.23-.3-.05-.43-.3-.52-.39-.09-.09-.35-.49-.35-.63,0-.15-.49.16-.45.36.04.2.69.92.69.92"/>
    <path class="cls-22" d="M172.38,21.1s.5-.49.68-.49c.17,0,.9.25.73.61-.17.36,0,.46-.35.65-.36.19-.42.16-.44.14-.02-.02-.59-.56-.62-.91"/>
    <path class="cls-22" d="M174.03,21.21s.52-.31.54-.43c.02-.12-.03-.36-.16-.42-.13-.06-.2-.25-.39-.19-.19.07-.52.36-.52.36,0,0,.31.06.52.68"/>
    <path class="cls-22" d="M174.5,20.78s.27-.25.65-.5c.38-.25.94-.59,1.07-.72.13-.12-.91.28.05-.24,0,0,2.55-1.88,3-2.11,0,0-2.54,1.48-2.96,1.81-.42.33-1.37,1-1.37,1,0,0-.22,0,.24-.38.46-.39,3.03-3.09,3.07-3.24.04-.15-2.39,2.38-2.51,2.42-.12.03,1.63-2.25,1.55-2.27-.07-.01-1.65,2.15-1.77,2.24-.12.08.04-.17-.02-.14-.06.03-1.47,1.54-1.62,1.63-.15.09.08-.15.24-.01.17.14.37.5.37.5"/>
    <g>
      <path class="cls-28" d="M138.88,25.36c1.02.29.52-.44.52-.44,0,0-3.11-1.81-3.29-2.01-.19-.2.15-.33.15-.33,0,0,3.26-.29,3.9-.65.63-.36-.2-.6-.2-.6,0,0-3.61.66-3.87.58-.26-.08-.04-.34-.04-.34,4.6-4.2,3.04-3.24,2.9-3.34-.14-.1-3.41,2.89-3.41,2.89,0,0,.38-3.2.52-3.98.14-.79-.27-.58-.51-.54-.24.04-.92,4.36-.92,4.36-.43.08-1.82-.84-3.15-1.26-1.33-.42-.9.43-.9.43,0,0,2.67,1.3,3.33,1.56.66.26.3.37.3.37,0,0-2.62,1.03-3.51,1.22-.89.19-.09.74-.09.74,0,0,3.44-1.34,3.68-1.43.24-.09.11.22.11.22,0,0-2,1.98-2.59,2.73-.6.75.12.67.12.67,0,0,1.41-1.42,2.2-2.26.79-.84.69-.55.69-.55,0,0,.51,2.91.94,4.05.42,1.14.74.14.74.14,0,0-.79-3.49-.87-3.83-.09-.34.23-.35.23-.35,0,0,2.01,1.69,3.03,1.98M134.92,22.3l-.02-.02c-.14-.15-.13-.39.01-.53.15-.14.38-.14.53.01l.02.03c.14.15.13.38-.02.53-.15.14-.38.13-.53-.02"/>
      <line class="cls-28" x1="134.92" y1="22.3" x2="146.07" y2="22.27"/>
    </g>
    <path class="cls-21" d="M209.79,14.95c-.19-.27.02-.96,1.62-1.43,1.6-.47,5.26-.98,5.26-.98,0,0,.29-.35.84-.55.55-.2.2.8.7.82.49.02,3.73.72,4.3,1,.57.29,1.7-.49,2.35-.78.66-.29.8-.45.41.25-.39.7-.82,1.35-.59,1.58.22.23.88,1.41.45,1.47-.43.06-1.9-1.31-2.58-1.11-.68.21-.98.14-.92.49.06.35-.72.2-1.17.08-.45-.12-1.21.16-1.58.35-.37.18-.04.92-.51.96-.47.04-1.17-.49-1.17-.49"/>
    <path class="cls-21" d="M217.2,16.61s-3.44,0-4.48-.31c-1.04-.31-2.74-1.08-2.93-1.35"/>
    <path class="cls-21" d="M228.89,21s-3.44,0-4.48-.31c-1.04-.31-2.74-1.08-2.93-1.35-.18-.27.02-.96,1.62-1.43,1.6-.47,5.26-.98,5.26-.98,0,0,.29-.35.84-.55.55-.2.21.8.7.82.49.02,3.73.72,4.3,1,.57.29,1.7-.49,2.35-.78.66-.29.8-.45.41.25-.39.7-.82,1.35-.59,1.57.23.23.88,1.41.45,1.47-.43.06-1.9-1.31-2.58-1.1-.68.2-.98.14-.92.49.06.35-.72.21-1.17.08-.45-.12-1.21.16-1.58.35-.37.18-.04.92-.51.96-.47.04-1.17-.49-1.17-.49"/>
    <path class="cls-21" d="M234.5,15.64s-3.44,0-4.48-.31c-1.04-.31-2.74-1.08-2.93-1.35-.18-.27.02-.96,1.62-1.43,1.6-.47,5.26-.98,5.26-.98,0,0,.29-.35.84-.55.55-.2.21.8.7.82.49.02,3.73.72,4.3,1,.57.29,1.7-.49,2.35-.78.65-.29.8-.45.41.25-.39.7-.82,1.35-.59,1.58s.88,1.41.45,1.47c-.43.06-1.9-1.31-2.58-1.11-.68.21-.98.14-.92.49.06.35-.72.2-1.17.08-.45-.12-1.21.16-1.58.35-.37.18-.04.92-.51.96-.47.04-1.17-.49-1.17-.49"/>
    <path class="cls-26" d="M203.55,84.85s.97-1.7,1.59-1.98c.62-.27,3.31-1.81,4.98.07,0,0-1.17-.33-2.22.1,0,0,2.06.49,2.17.54.11.06.19.02.26.01.07-.01.07.22-.15.27-.21.06-2.53-.29-2.89-.26-.36.03-1.58-.22-1.73.06-.15.27-.49,1-.49,1,0,0,.77.04.94.07.26.04,2.49-.97,4.34-.4.37.11-1.42,0-1.54-.01-.12-.02-2.31.34-2.52.48-.22.15-.5.35-.57.46-.07.11-.16.32-.16.32,0,0,5.13-.18,5.6,0,.47.18.88.28.94.38.06.1-.53-.12-.78-.19-.25-.07-5.3-.11-5.46.08-.17.19-1.43,1.39-1.55,1.42-.11.03,3.14.55,3.25.5.11-.06,3.42-1.67,3.59-.64,0,0,.21.2-.08.15-.29-.06-1.13.28-1.15.39-.02.11-.21.23-.21.23,0,0,1.72-.32,1.77-.18.06.14-.11,1.74-1.52,1.72-1.41-.02-3.95-.79-4.23-.97-.28-.18-2.21-.8-2.21-.8,0,0-.6.21-.6.25s-.02.3.26.42c.28.11,1.25.23,1.48.46.23.24.94.59,1.19.54.25-.05.62.21.06.23-.56,0-.68,0-1.14-.28-.46-.29-1.08-.46-1.48-.63-.4-.17-.66-.68-.69-.66-.03.02-.41.18-.38.15.02-.03-.02.36.19.55.21.19.89.54,1.02.72.12.18.54.77.77.89.23.12,1.12.46.93.52-.19.06-1.24-.4-1.66-.85-.42-.45-.6-.66-.81-.8-.21-.15-.86-.89-.81-.95.05-.06-.23.02-.23.02,0,0-.09.69.11.91.2.23,1.03,1,1.15,1.23.12.23.46.61.65.77.19.16.84,1.12.6.95-.24-.17-1.14-.94-1.33-1.23-.19-.29-.7-.9-.91-1.16-.21-.26-.72-.57-.62-1.38,0,0-.29-.01-.33-.02-.03-.01-.02.32.05.51.07.19.69,1.22.44,2.74,0,0,.09,1.05-.08.8-.17-.25,0-1.23-.12-1.84-.12-.61-.58-1.93-.66-2.17-.08-.24-.13-.32-.13-.32,0,0,.16.33-.81.61,0,0-.24.02-.36.07-.12.05-.37.18-.41.18s-.17-.01-.25.01c-.08.02-.24.17-.35.19-.11.02-.1-.02-.36.09-.26.11-.33.1-.41.12-.08.02-.33-.03-.44.05-.11.08-.28.03-.19.16.09.12.35.9.08,1.38-.27.47-.76.76-1.13.38-.37-.37-.35-.67-.35-.67,0,0-.34-.07-.49-.5-.15-.43.15-.68.15-.68,0,0-.12-.02-.32-.32,0,0-.06-.34-.02-.41.03-.07-.36-.35-.42-.82-.06-.47.44-1.44,1.64-.81,0,0,.2.08.31.11.1.03.18-.14.32-.08.13.06.15-.33.44-.33s.43-.38.76-.27c.33.11-.01-.15.45-.28.46-.13.95-.33.95-.33l.28-.06s-.3-.52-.46-.68c-.16-.16-.86-.43-1.11-.58-.25-.15-.6-.5-.27-.37.33.13,1.22.35,1.46.63.24.28.6.88.62.93.02.04.34,0,.34,0,0,0-.26-1.16-.42-1.33-.16-.17-1.01-.68-1.17-.73-.17-.06-.86-.44-.06-.28.8.16,1.38.64,1.53,1.02.15.37.35,1.31.42,1.3.07-.01.52-.14.53-.18.01-.05-.08-1.02-.16-1.43-.08-.42.29-.25-.13-.49-.43-.24-.78-.51-.56-.59.21-.08.87.28.95.6.08.32.17,1.93.24,1.87.07-.06.58-.27.58-.27,0,0,.01-1.4.2-1.65.19-.25,1.28-.77,1.49-.53.21.24.24.5-.01.42-.25-.08-.99.07-1.08.26-.09.19-.34,1.39-.29,1.43.05.05,1.47-.34,1.47-.34"/>
    <line class="cls-28" x1="146.93" y1="22.3" x2="158.07" y2="22.27"/>
    <path class="cls-28" d="M149.49,24.2c1.02.29.52-.44.52-.44,0,0-3.11-1.81-3.29-2.01-.19-.2.15-.33.15-.33,0,0,3.26-.29,3.9-.65.63-.36-.2-.6-.2-.6,0,0-3.61.66-3.87.58-.26-.08-.04-.34-.04-.34,4.6-4.2,3.04-3.24,2.9-3.34-.14-.1-3.41,2.89-3.41,2.89,0,0,.38-3.2.52-3.98.14-.79-.27-.58-.51-.54-.24.04-.92,4.36-.92,4.36-.43.08-1.82-.84-3.15-1.26-1.33-.42-.9.43-.9.43,0,0,2.67,1.3,3.33,1.56.66.26.3.37.3.37,0,0-2.62,1.03-3.51,1.22-.89.19-.09.74-.09.74,0,0,3.44-1.34,3.68-1.43.24-.09.11.22.11.22,0,0-2,1.98-2.59,2.73-.6.75.12.67.12.67,0,0,1.41-1.42,2.2-2.26.79-.84.69-.55.69-.55,0,0,.51,2.91.94,4.05.42,1.14.74.14.74.14,0,0-.79-3.49-.87-3.83-.09-.34.23-.35.23-.35,0,0,2.01,1.69,3.03,1.98M145.53,21.14l-.02-.02c-.14-.15-.13-.39.01-.53.15-.14.38-.14.53.01l.02.03c.14.15.13.38-.02.53-.15.14-.38.13-.53-.02"/>
    <line class="cls-28" x1="145.53" y1="21.14" x2="156.68" y2="21.11"/>
    <path class="cls-1" d="M161.44,96.12c.06.23.32.38.55.33,0-.25-.33-.43-.54-.29.04.08.18.09.22,0-.01.13-.02.27-.03.4-.07-.07-.14-.14-.21-.21.15.07-1.07,1.42-.99,1.57-.11.23-.47.27-.63.07.06-.12.12-.24.19-.36"/>
    <path class="cls-1" d="M164.81,96v-.62c-.06.29-.11.57-.17.86.08-.14.06-.34-.05-.45.1,0,.2-.01.3-.02-.21,0-.42.02-.63.02.03.1.12.17.22.2"/>
    <path class="cls-1" d="M161.32,95.53c.4.06.73.41.78.81"/>
    <path class="cls-1" d="M159.65,97l.43.58"/>
  </g>
  <g id="Layer_2" data-name="Layer 2">
    <path class="cls-17" d="M164.42,45.59c-3.86,0-7.01-2.97-7.01-6.61s3.14-6.61,7.01-6.61,7.01,2.97,7.01,6.61-3.14,6.61-7.01,6.61Z"/>
    <g>
      <g>
        <polygon class="cls-27" points="223.37 38.38 225.48 40.49 223.37 42.6 223.37 38.38"/>
        <path class="cls-27" d="M223.37,38.38l2.11,2.11-2.11,2.11v-4.22M223.37,38.18s-.05,0-.08.02c-.08.03-.13.1-.13.19v4.22c0,.08.05.16.13.19.03.01.06.01.08.01.06,0,.11-.02.15-.06l2.11-2.11s.06-.09.06-.14c0-.06-.02-.1-.06-.14l-2.11-2.11s-.09-.06-.15-.06h0Z"/>
      </g>
      <g>
        <polygon class="cls-27" points="223.32 39.3 223.38 41.77 219.86 41.69 219.86 39.3 223.32 39.3"/>
        <path class="cls-27" d="M223.37,39.35v2.29h-3.47v-2.29h3.47M223.37,39.15h-3.47c-.11,0-.2.09-.2.2v2.29c0,.11.09.19.2.19h3.47c.1,0,.19-.08.19-.19v-2.29c0-.11-.09-.2-.19-.2h0Z"/>
      </g>
    </g>
    <g>
      <g>
        <polygon class="cls-27" points="199.84 35.11 197.81 35.83 198.09 33.76 199.84 35.11"/>
        <path class="cls-27" d="M197.81,35.83l.29-2.08,1.74,1.36-2.03.72M197.73,35.94s.08.04.14.02l2.02-.72s.08-.06.09-.11c0-.05-.01-.1-.05-.13h0l-1.74-1.36s-.1-.04-.15-.02c-.04.02-.08.06-.08.11l-.29,2.08s.01.09.06.12h0Z"/>
      </g>
      <g>
        <path class="cls-27" d="M198.89,34.88c1-.63,1.95-1.05,2.89-1.24,1.23-.26,2.47-.17,3.8.3,1.18.41,2.48,1.13,4.09,2.25l.41-.56c-1.67-1.16-3.02-1.91-4.27-2.34-1.45-.51-2.82-.62-4.19-.33-1.08.23-2.18.71-3.34,1.47"/>
        <path class="cls-14" d="M210.12,35.57s0,0,0,0c-1.67-1.16-3.03-1.91-4.28-2.34-1.47-.52-2.85-.62-4.23-.33-1.1.24-2.2.72-3.35,1.48-.04.02-.05.06-.02.1.02.03.07.04.1.02,1.14-.75,2.22-1.23,3.31-1.46,1.35-.29,2.71-.18,4.15.32,1.21.43,2.55,1.16,4.18,2.29l-1.92-.65c-1.59-1.11-1.29-.71-2.46-1.12-1.34-.47-2.6-.57-3.84-.3-.95.2-1.91.61-2.91,1.25-.04.02-.05.07-.02.1.02.03.06.04.1.02.99-.63,1.93-1.03,2.87-1.23,1.21-.26,2.44-.16,3.76.3,1.16.41,2.46,1.12,4.07,2.24.01,0,.03.01.05,0,.02,0,.04,0,.05-.03l.41-.56s.02-.07-.02-.1Z"/>
      </g>
    </g>
    <path class="cls-27" d="M196.45,43.46c-2.2,0-3.99-1.79-3.99-3.99s1.8-3.99,3.99-3.99,3.99,1.79,3.99,3.99-1.8,3.99-3.99,3.99ZM196.45,36.03c-1.89,0-3.44,1.54-3.44,3.44s1.55,3.44,3.44,3.44,3.44-1.54,3.44-3.44-1.55-3.44-3.44-3.44Z"/>
    <path class="cls-27" d="M213.66,44.22c-2.75,0-4.99-2.24-4.99-4.99s2.24-5,4.99-5,5,2.24,5,5-2.24,4.99-5,4.99ZM213.66,34.92c-2.37,0-4.31,1.93-4.31,4.31s1.94,4.3,4.31,4.3,4.31-1.93,4.31-4.3-1.93-4.31-4.31-4.31Z"/>
    <g>
      <g>
        <polygon class="cls-27" points="219.18 34.31 217.16 35.03 217.44 32.95 219.18 34.31"/>
        <path class="cls-27" d="M217.16,35.03l.28-2.08,1.74,1.36-2.02.72M217.07,35.14s.09.04.14.02l2.02-.72c.05-.02.08-.06.09-.11,0-.05-.01-.1-.05-.13h0l-1.74-1.36s-.1-.04-.14-.02c-.05.02-.08.06-.09.11l-.28,2.08s.01.1.05.13h0Z"/>
      </g>
      <g>
        <path class="cls-27" d="M218.24,34.07c1-.63,1.96-1.04,2.89-1.24,1.23-.26,2.47-.16,3.8.3,1.17.41,2.47,1.13,4.09,2.25l.41-.56c-1.67-1.16-3.02-1.9-4.26-2.34-1.46-.51-2.83-.61-4.2-.32-1.08.23-2.18.71-3.33,1.47"/>
        <path class="cls-14" d="M229.48,34.77s0,0,0,0c-1.68-1.16-3.04-1.91-4.29-2.35-1.46-.51-2.85-.62-4.23-.33-1.1.23-2.2.72-3.36,1.48-.04.02-.04.07-.02.1.03.03.07.04.1.02,1.14-.75,2.22-1.23,3.31-1.46,1.35-.29,2.71-.18,4.15.33,1.22.43,2.55,1.16,4.19,2.29l-1.92-.66c-1.59-1.1-1.29-.7-2.46-1.11-1.34-.47-2.6-.57-3.84-.31-.95.2-1.9.61-2.92,1.26-.03.02-.04.06-.02.09.02.03.07.04.1.02,1-.64,1.93-1.04,2.87-1.24,1.22-.26,2.45-.16,3.76.3,1.17.41,2.46,1.13,4.07,2.24.02.01.04.01.05.01.02,0,.03-.01.05-.03l.41-.56s.01-.07-.01-.09Z"/>
      </g>
    </g>
    <path class="cls-8" d="M177.02,39.23c0,5.04-10.33,9.12-23.08,9.12s-23.08-4.08-23.08-9.12,10.33-9.12,23.08-9.12,23.08,4.09,23.08,9.12Z"/>
    <path class="cls-2" d="M244.23,39.13c0,5.87-12.27,10.63-27.42,10.63s-27.41-4.76-27.41-10.63,12.27-10.63,27.41-10.63,27.42,4.76,27.42,10.63Z"/>
    <g>
      <g>
        <g>
          <polygon class="cls-25" points="204.03 104.07 206.14 106.19 204.03 108.29 204.03 104.07"/>
          <path class="cls-25" d="M204.03,104.07l2.11,2.11-2.11,2.11v-4.22M204.03,103.87s-.05,0-.08.01c-.08.03-.12.11-.12.19v4.22c0,.08.05.16.12.19.03.01.05.02.08.02.05,0,.11-.02.14-.06l2.11-2.11s.06-.09.06-.15-.02-.11-.06-.15l-2.11-2.11s-.09-.06-.14-.06h0Z"/>
        </g>
        <g>
          <polygon class="cls-25" points="203.98 104.99 204.04 107.46 200.51 107.39 200.51 104.99 203.98 104.99"/>
          <path class="cls-25" d="M204.02,105.04v2.28h-3.46v-2.28h3.46M204.02,104.85h-3.46c-.11,0-.2.09-.2.2v2.28c0,.11.09.2.2.2h3.46c.11,0,.2-.09.2-.2v-2.28c0-.11-.09-.2-.2-.2h0Z"/>
        </g>
      </g>
      <g>
        <g>
          <polygon class="cls-25" points="222.48 104.07 224.59 106.19 222.48 108.29 222.48 104.07"/>
          <path class="cls-25" d="M222.48,104.07l2.11,2.11-2.11,2.11v-4.22M222.48,103.87s-.05,0-.08.01c-.08.03-.13.11-.13.19v4.22c0,.08.05.16.13.19.03.01.06.02.08.02.06,0,.11-.02.15-.06l2.11-2.11s.06-.09.06-.15-.02-.11-.06-.15l-2.11-2.11s-.09-.06-.15-.06h0Z"/>
        </g>
        <g>
          <polygon class="cls-25" points="222.43 104.99 222.49 107.46 218.97 107.39 218.97 104.99 222.43 104.99"/>
          <path class="cls-25" d="M222.47,105.04v2.28h-3.46v-2.28h3.46M222.47,104.85h-3.46c-.11,0-.2.09-.2.2v2.28c0,.11.09.2.2.2h3.46c.11,0,.2-.09.2-.2v-2.28c0-.11-.09-.2-.2-.2h0Z"/>
        </g>
      </g>
    </g>
    <g>
      <g>
        <polygon class="cls-25" points="204.03 104.07 206.14 106.19 204.03 108.29 204.03 104.07"/>
        <path class="cls-25" d="M204.03,104.07l2.11,2.11-2.11,2.11v-4.22M204.03,103.87s-.05,0-.08.01c-.08.03-.12.11-.12.19v4.22c0,.08.05.16.12.19.03.01.05.02.08.02.05,0,.11-.02.14-.06l2.11-2.11s.06-.09.06-.15-.02-.11-.06-.15l-2.11-2.11s-.09-.06-.14-.06h0Z"/>
      </g>
      <g>
        <polygon class="cls-25" points="203.98 104.99 204.04 107.46 200.51 107.39 200.51 104.99 203.98 104.99"/>
        <path class="cls-25" d="M204.02,105.04v2.28h-3.46v-2.28h3.46M204.02,104.85h-3.46c-.11,0-.2.09-.2.2v2.28c0,.11.09.2.2.2h3.46c.11,0,.2-.09.2-.2v-2.28c0-.11-.09-.2-.2-.2h0Z"/>
      </g>
    </g>
    <g>
      <g>
        <polygon class="cls-25" points="222.48 104.07 224.59 106.19 222.48 108.29 222.48 104.07"/>
        <path class="cls-25" d="M222.48,104.07l2.11,2.11-2.11,2.11v-4.22M222.48,103.87s-.05,0-.08.01c-.08.03-.13.11-.13.19v4.22c0,.08.05.16.13.19.03.01.06.02.08.02.06,0,.11-.02.15-.06l2.11-2.11s.06-.09.06-.15-.02-.11-.06-.15l-2.11-2.11s-.09-.06-.15-.06h0Z"/>
      </g>
      <g>
        <polygon class="cls-25" points="222.43 104.99 222.49 107.46 218.97 107.39 218.97 104.99 222.43 104.99"/>
        <path class="cls-25" d="M222.47,105.04v2.28h-3.46v-2.28h3.46M222.47,104.85h-3.46c-.11,0-.2.09-.2.2v2.28c0,.11.09.2.2.2h3.46c.11,0,.2-.09.2-.2v-2.28c0-.11-.09-.2-.2-.2h0Z"/>
      </g>
    </g>
    <path class="cls-25" d="M194.75,109.15c-2.2,0-3.99-1.79-3.99-3.99s1.79-3.99,3.99-3.99,3.99,1.79,3.99,3.99-1.79,3.99-3.99,3.99ZM194.75,101.72c-1.9,0-3.44,1.54-3.44,3.44s1.54,3.44,3.44,3.44,3.44-1.54,3.44-3.44-1.54-3.44-3.44-3.44Z"/>
    <path class="cls-25" d="M211.96,109.91c-2.75,0-5-2.24-5-5s2.24-4.99,5-4.99,5,2.24,5,4.99-2.25,5-5,5ZM211.96,100.61c-2.37,0-4.31,1.93-4.31,4.31s1.93,4.31,4.31,4.31,4.31-1.93,4.31-4.31-1.94-4.31-4.31-4.31Z"/>
    <path class="cls-11" d="M242.53,104.82c0,5.87-13.28,10.63-28.42,10.63s-26.41-4.76-26.41-10.63,12.28-10.63,27.41-10.63,27.42,4.76,27.42,10.63Z"/>
    <path class="cls-29" d="M167.65,111.4c-3.86,0-7.01-2.97-7.01-6.61s3.15-6.61,7.01-6.61,7.01,2.97,7.01,6.61-3.14,6.61-7.01,6.61ZM167.65,99.1c-3.33,0-6.04,2.56-6.04,5.7s2.71,5.7,6.04,5.7,6.05-2.55,6.05-5.7-2.71-5.7-6.05-5.7Z"/>
    <path class="cls-17" d="M150.24,43.98c-2.88,0-5.22-2.21-5.22-4.92s2.34-4.92,5.22-4.92,5.22,2.21,5.22,4.92-2.34,4.92-5.22,4.92Z"/>
    <path class="cls-17" d="M139.14,43.17c-2.09,0-3.8-1.71-3.8-3.81s1.71-3.82,3.8-3.82,3.81,1.71,3.81,3.82-1.71,3.81-3.81,3.81Z"/>
    <g>
      <g>
        <polygon class="cls-27" points="205.64 38.38 207.75 40.49 205.64 42.6 205.64 38.38"/>
        <path class="cls-27" d="M205.64,38.38l2.11,2.11-2.11,2.11v-4.22M205.64,38.18s-.06,0-.08.02c-.08.03-.13.1-.13.19v4.22c0,.08.06.16.13.19.02.01.05.01.08.01.05,0,.1-.02.15-.06l2.11-2.11s.06-.09.06-.14c0-.06-.02-.1-.06-.14l-2.11-2.11s-.09-.06-.14-.06h0Z"/>
      </g>
      <g>
        <polygon class="cls-27" points="205.58 39.3 205.65 41.77 202.12 41.69 202.12 39.3 205.58 39.3"/>
        <path class="cls-27" d="M205.63,39.35v2.29h-3.46v-2.29h3.46M205.63,39.15h-3.46c-.11,0-.2.09-.2.2v2.29c0,.11.09.19.2.19h3.46c.1,0,.19-.08.19-.19v-2.29c0-.11-.09-.2-.19-.2h0Z"/>
      </g>
    </g>
    <path class="cls-15" d="M233.85,45.59c-3.86,0-7.01-2.97-7.01-6.61s3.15-6.61,7.01-6.61,7.01,2.97,7.01,6.61-3.15,6.61-7.01,6.61Z"/>
    <path class="cls-16" d="M232.15,111.28c-3.87,0-7.01-2.96-7.01-6.6s3.14-6.61,7.01-6.61,7.01,2.96,7.01,6.61-3.14,6.6-7.01,6.6Z"/>
    <text/>
    <g>
      <line class="cls-18" x1="176.34" y1="105.12" x2="185.49" y2="104.96"/>
      <g>
        <line class="cls-4" x1="179.65" y1="105.06" x2="185.49" y2="104.96"/>
        <polygon class="cls-30" points="180.36 107.35 176.34 105.12 180.28 102.76 180.36 107.35"/>
      </g>
    </g>
    <g>
      <line class="cls-18" x1="179.65" y1="38.5" x2="188.8" y2="38.34"/>
      <g>
        <line class="cls-3" x1="182.96" y1="38.44" x2="188.8" y2="38.34"/>
        <polygon class="cls-19" points="183.67 40.72 179.65 38.5 183.59 36.14 183.67 40.72"/>
      </g>
    </g>
    <text class="cls-13" transform="translate(129.15 6.39)"><tspan x="0" y="0">Input: size-structured resource</tspan></text>
    <text class="cls-13" transform="translate(248.06 96.25)"><tspan x="0" y="0">Benthic Detritivores:</tspan><tspan x="0" y="8.93">size-based competition</tspan><tspan x="0" y="17.87">for shared food</tspan></text>
    <text class="cls-13" transform="translate(251.33 6.39)"><tspan x="0" y="0">Pelagic predators:</tspan><tspan x="0" y="8.93">size-structured</tspan><tspan x="0" y="17.87">inter- and intraguild</tspan><tspan x="0" y="26.8">predation</tspan></text>
    <text class="cls-13" transform="translate(127.98 70.9)"><tspan x="0" y="0">Detritus:</tspan><tspan x="0" y="8.93">pool of</tspan><tspan x="0" y="17.87">sinking </tspan><tspan x="0" y="26.8">dead</tspan><tspan x="0" y="35.73">material</tspan></text>
    <text/>
    <text/>
    <g>
      <line class="cls-24" x1="218.25" y1="91.38" x2="236.2" y2="50.42"/>
      <g>
        <line class="cls-12" x1="219.58" y1="88.35" x2="236.2" y2="50.42"/>
        <polygon class="cls-23" points="221.95 88.66 218.25 91.38 217.75 86.82 221.95 88.66"/>
      </g>
    </g>
    <g>
      <line class="cls-18" x1="172.32" y1="95.86" x2="207.33" y2="52.64"/>
      <g>
        <line class="cls-5" x1="174.4" y1="93.29" x2="175.98" y2="91.35"/>
        <line class="cls-7" x1="179.29" y1="87.26" x2="204.1" y2="56.63"/>
        <line class="cls-5" x1="205.76" y1="54.59" x2="207.33" y2="52.64"/>
        <polygon class="cls-20" points="176.61 94.21 172.32 95.86 173.04 91.32 176.61 94.21"/>
      </g>
    </g>
    <g>
      <line class="cls-18" x1="163.98" y1="92.16" x2="164.89" y2="49.76"/>
      <g>
        <line class="cls-5" x1="164.05" y1="88.86" x2="164.1" y2="86.36"/>
        <line class="cls-10" x1="164.21" y1="81.49" x2="164.79" y2="54.7"/>
        <line class="cls-5" x1="164.84" y1="52.26" x2="164.89" y2="49.76"/>
        <polygon class="cls-20" points="166.36 88.23 163.98 92.16 161.77 88.13 166.36 88.23"/>
      </g>
    </g>
    <text/>
    <g>
      <line class="cls-5" x1="178.11" y1="99.37" x2="180.61" y2="99.37"/>
      <line class="cls-5" x1="186.3" y1="99.37" x2="188.8" y2="99.37"/>
      <polygon class="cls-20" points="178.78 101.67 174.81 99.37 178.78 97.08 178.78 101.67"/>
    </g>
    <text class="cls-13" transform="translate(343.97 58.06)"><tspan x="0" y="0">Exploitable by fisheries</tspan></text>
    <text/>
    <line class="cls-6" x1="317.92" y1="38.55" x2="340.19" y2="54.56"/>
    <line class="cls-9" x1="340.19" y1="54.56" x2="322.4" y2="82.03"/>
    <line class="cls-6" x1="120.45" y1="39.59" x2="98.18" y2="55.59"/>
    <line class="cls-9" x1="98.18" y1="55.59" x2="115.96" y2="83.06"/>
    <text class="cls-13" transform="translate(45.82 57.58)"><tspan x="0" y="0">Modified by </tspan><tspan x="0" y="8.93">climate change</tspan><tspan x="0" y="17.87">variables</tspan></text>
    <text/>
  </g>
</svg>